<?xml version="1.0" standalone="no"?>
<!DOCTYPE svg PUBLIC "-//W3C//DTD SVG 20010904//EN"
 "http://www.w3.org/TR/2001/REC-SVG-20010904/DTD/svg10.dtd">
<svg version="1.0" xmlns="http://www.w3.org/2000/svg"
 width="700.000000pt" height="700.000000pt" viewBox="0 0 700.000000 700.000000"
 preserveAspectRatio="xMidYMid meet">
<metadata>
Created by potrace 1.14, written by Peter Selinger 2001-2017
</metadata>
<g transform="translate(0.000000,700.000000) scale(0.100000,-0.100000)"
fill="#000000" stroke="none">
<path d="M3381 5556 c-161 -31 -262 -78 -348 -161 -109 -106 -118 -213 -26
-315 49 -55 131 -100 233 -127 98 -27 347 -24 455 6 164 44 291 125 337 214
12 24 20 60 20 93 1 121 -116 228 -307 279 -84 23 -272 28 -364 11z"/>
<path d="M1065 4794 c-209 -33 -404 -176 -494 -364 -14 -30 -31 -60 -37 -67
-22 -23 -26 -232 -22 -1143 4 -878 5 -908 25 -990 70 -284 231 -530 448 -685
33 -24 272 -166 530 -317 259 -151 607 -355 774 -453 383 -224 507 -274 805
-325 375 -64 847 -28 1159 87 74 28 83 37 22 23 -62 -15 -181 -12 -249 6 -198
51 -361 210 -423 414 -16 50 -18 149 -21 1015 -2 661 0 986 8 1045 35 270 146
497 330 680 93 92 145 127 460 312 113 66 279 164 370 218 91 54 174 102 185
108 15 9 -14 11 -124 12 l-144 0 -294 -166 c-162 -91 -332 -182 -379 -201
-301 -123 -634 -129 -944 -17 -99 35 -128 50 -446 230 l-272 154 -142 0 -142
0 -82 48 c-341 204 -566 327 -632 348 -73 23 -207 37 -269 28z"/>
<path d="M6462 4360 c0 -8 4 -26 8 -40 6 -20 8 -21 8 -5 0 11 -3 29 -8 40 -5
12 -8 14 -8 5z"/>
<path d="M5773 4281 c-169 -62 -332 -264 -388 -482 -24 -91 -17 -228 14 -289
118 -232 414 -195 606 75 234 327 174 696 -115 711 -46 3 -80 -2 -117 -15z"/>
<path d="M5105 3123 c-223 -80 -416 -387 -403 -638 11 -189 116 -293 290 -283
124 7 245 85 343 222 191 268 195 573 9 682 -61 36 -166 43 -239 17z"/>
<path d="M4418 1956 c-125 -51 -243 -174 -317 -329 -119 -249 -87 -473 79
-560 49 -26 63 -28 130 -25 165 7 323 134 428 343 69 139 91 296 57 411 -45
152 -218 225 -377 160z"/>
</g>
</svg>
